<svg version="1.1" id="Layer_1" xmlns="http://www.w3.org/2000/svg" xmlns:xlink="http://www.w3.org/1999/xlink" x="0px" y="0px"
	 width="100%" viewBox="0 0 1080 222" enable-background="new 0 0 1080 222" xml:space="preserve">
<path fill="#010101" opacity="1.000000" stroke="none" 
	d="
M1.000000,99.000000 
	C1.000000,66.344719 1.000000,33.689438 1.000001,1.039383 
	C361.000000,1.044606 721.000000,1.044606 1081.000000,1.044606 
	C1081.000000,19.416132 1081.000000,37.743053 1080.619019,56.555344 
	C1052.128418,66.380165 1024.025024,75.685509 994.894226,81.529510 
	C964.624695,87.601967 934.144836,90.308289 903.506897,86.010193 
	C878.802734,82.544518 854.162598,78.303223 829.739136,73.226791 
	C786.643066,64.269249 743.209473,58.616032 699.253357,61.693668 
	C646.439575,65.391479 593.736084,70.686943 540.998657,75.444153 
	C503.117981,78.861198 465.202148,80.156975 427.182831,78.590508 
	C393.896423,77.219048 360.606720,75.558815 327.303101,75.066780 
	C286.506744,74.464035 246.338715,81.210770 206.193085,87.514160 
	C167.986877,93.513039 129.652756,98.373940 90.948853,99.000946 
	C60.973774,99.486542 30.983513,99.034966 1.000000,99.000000 
z"/>
<path fill="#E0B5D6" opacity="1.000000" stroke="none" 
	d="
M1.000000,178.000000 
	C1.000000,161.979111 1.000000,145.958206 1.416274,129.482101 
	C3.289514,129.340820 4.732173,129.774887 6.205629,129.950394 
	C23.621819,132.024933 41.017532,134.315613 58.469410,136.033554 
	C75.111328,137.671753 91.793159,139.333557 108.492912,139.860199 
	C137.560959,140.776840 166.597122,139.848953 195.511490,136.099869 
	C209.458908,134.291428 223.497101,133.141296 237.514099,131.921921 
	C254.010956,130.486816 270.512695,128.619003 287.043549,128.213455 
	C301.105072,127.868484 315.238708,128.982727 329.289215,130.097015 
	C342.638977,131.155746 355.935059,132.949432 369.231323,134.607880 
	C382.692566,136.286911 396.105560,138.361496 409.576294,139.953110 
	C420.588806,141.254272 431.635284,142.548523 442.702454,143.038193 
	C457.975372,143.713943 473.301300,144.207382 488.568207,143.695679 
	C501.605865,143.258713 514.594971,141.319839 527.600708,139.997849 
	C541.104309,138.625290 554.596497,137.140350 568.103821,135.806656 
	C581.608032,134.473267 595.117554,132.324738 608.637634,132.221039 
	C629.716370,132.059326 650.811157,133.196259 671.888855,134.038864 
	C681.485657,134.422501 691.066040,135.325714 700.639587,136.157959 
	C714.489319,137.361969 728.320984,138.773865 742.170654,139.978592 
	C748.281616,140.510147 754.413452,140.951614 760.543457,141.084946 
	C777.499451,141.453735 794.478027,142.242233 811.412659,141.723862 
	C827.779602,141.222885 844.100464,139.266556 860.446594,138.015152 
	C870.360840,137.256149 880.287170,136.655518 890.203613,135.923843 
	C907.547241,134.644135 924.873413,132.506287 942.232483,132.205902 
	C967.009277,131.777176 991.810120,132.624893 1016.598450,133.053284 
	C1022.894836,133.162079 1029.192383,133.629303 1035.473022,134.135712 
	C1050.653809,135.359772 1065.824951,136.704147 1081.000000,138.000000 
	C1081.000000,153.354233 1081.000000,168.708450 1080.560425,184.527466 
	C1077.327515,184.667023 1074.540283,184.130676 1071.739990,184.051956 
	C1057.119385,183.640884 1042.495483,183.346207 1027.872803,183.010742 
	C1013.416687,182.679092 998.960999,182.327271 984.504333,182.020447 
	C967.549622,181.660599 950.592834,181.389832 933.639343,180.980820 
	C925.177917,180.776703 916.723511,180.300049 908.263123,180.034912 
	C885.849548,179.332458 863.430908,178.774216 841.021301,177.966034 
	C828.928406,177.529922 816.843384,176.797882 804.766113,176.023743 
	C785.091187,174.762634 765.422485,173.399872 745.756958,171.998642 
	C732.541443,171.057007 719.319092,170.154343 706.129944,168.913315 
	C686.858276,167.099991 667.626404,164.862640 648.354004,163.058060 
	C628.740295,161.221542 609.111206,159.509338 589.464294,158.079727 
	C572.106018,156.816650 554.721924,155.389130 537.334839,155.168503 
	C514.223511,154.875214 491.097321,155.634079 467.979645,156.056290 
	C463.183228,156.143906 458.378357,156.582077 453.607910,157.126160 
	C439.968994,158.681686 426.343506,160.356430 412.716980,162.018951 
	C398.923279,163.701843 385.154083,165.607147 371.338928,167.086182 
	C354.394257,168.900269 337.444153,171.098892 320.440521,171.828369 
	C292.874329,173.010986 265.428711,170.577423 238.059753,167.126282 
	C221.482056,165.035873 204.823990,163.557602 188.184906,161.985657 
	C168.560745,160.131744 148.988922,158.826263 129.161850,159.691376 
	C107.252388,160.647339 85.509491,162.544327 63.939461,166.114731 
	C42.880852,169.600494 21.973661,174.001038 1.000000,178.000000 
z"/>
<path fill="#D49AC9" opacity="1.000000" stroke="none" 
	d="
M1081.000000,137.532394 
	C1065.824951,136.704147 1050.653809,135.359772 1035.473022,134.135712 
	C1029.192383,133.629303 1022.894836,133.162079 1016.598450,133.053284 
	C991.810120,132.624893 967.009277,131.777176 942.232483,132.205902 
	C924.873413,132.506287 907.547241,134.644135 890.203613,135.923843 
	C880.287170,136.655518 870.360840,137.256149 860.446594,138.015152 
	C844.100464,139.266556 827.779602,141.222885 811.412659,141.723862 
	C794.478027,142.242233 777.499451,141.453735 760.543457,141.084946 
	C754.413452,140.951614 748.281616,140.510147 742.170654,139.978592 
	C728.320984,138.773865 714.489319,137.361969 700.639587,136.157959 
	C691.066040,135.325714 681.485657,134.422501 671.888855,134.038864 
	C650.811157,133.196259 629.716370,132.059326 608.637634,132.221039 
	C595.117554,132.324738 581.608032,134.473267 568.103821,135.806656 
	C554.596497,137.140350 541.104309,138.625290 527.600708,139.997849 
	C514.594971,141.319839 501.605865,143.258713 488.568207,143.695679 
	C473.301300,144.207382 457.975372,143.713943 442.702454,143.038193 
	C431.635284,142.548523 420.588806,141.254272 409.576294,139.953110 
	C396.105560,138.361496 382.692566,136.286911 369.231323,134.607880 
	C355.935059,132.949432 342.638977,131.155746 329.289215,130.097015 
	C315.238708,128.982727 301.105072,127.868484 287.043549,128.213455 
	C270.512695,128.619003 254.010956,130.486816 237.514099,131.921921 
	C223.497101,133.141296 209.458908,134.291428 195.511490,136.099869 
	C166.597122,139.848953 137.560959,140.776840 108.492912,139.860199 
	C91.793159,139.333557 75.111328,137.671753 58.469410,136.033554 
	C41.017532,134.315613 23.621819,132.024933 6.205629,129.950394 
	C4.732173,129.774887 3.289514,129.340820 1.416274,129.013443 
	C1.000000,120.979103 1.000000,112.958199 1.449661,104.468948 
	C15.779073,104.995354 29.644592,106.363510 43.542068,106.893120 
	C62.151260,107.602280 80.789108,108.070274 99.407478,107.892059 
	C120.329277,107.691788 141.278885,107.196747 162.149078,105.813950 
	C178.964630,104.699799 195.673172,102.012733 212.441833,100.136375 
	C228.559906,98.332809 244.669708,96.382515 260.827637,95.026970 
	C280.307373,93.392746 299.818085,91.906265 319.346130,91.150261 
	C331.606750,90.675598 343.929626,91.521660 356.214020,92.030403 
	C368.473480,92.538116 380.770935,92.877434 392.960602,94.157959 
	C414.343506,96.404221 435.664368,99.253197 456.997345,101.959114 
	C483.092499,105.269096 509.128143,109.112251 535.275574,111.924812 
	C554.203430,113.960815 573.254272,115.193398 592.282471,115.844521 
	C606.544678,116.332542 620.895508,115.847466 635.137512,114.827538 
	C647.986450,113.907364 660.761108,111.810974 673.532776,109.984024 
	C690.562439,107.547981 707.526978,104.642326 724.576416,102.364494 
	C740.154785,100.283211 755.772644,97.887848 771.439453,97.241890 
	C788.686707,96.530785 806.029785,97.254501 823.293518,98.110939 
	C837.163574,98.799026 851.003357,100.393539 864.810425,101.986206 
	C886.669128,104.507652 908.474121,107.493713 930.330322,110.038528 
	C948.900452,112.200737 967.492126,114.221962 986.109375,115.921173 
	C1000.626404,117.246155 1015.187256,118.171623 1029.746704,118.927780 
	C1046.821045,119.814537 1063.914673,120.325844 1081.000000,121.000000 
	C1081.000000,126.354927 1081.000000,131.709854 1081.000000,137.532394 
z"/>
<path fill="#F7E9F3" opacity="1.000000" stroke="none" 
	d="
M1081.000000,190.000000 
	C1081.000000,200.995880 1081.000000,211.991745 1081.000000,222.958771 
	C721.000000,222.958771 361.000000,222.958771 1.000000,222.958771 
	C1.000000,210.255707 1.000000,197.593887 1.449425,184.465469 
	C12.444875,184.989807 22.982466,186.083710 33.538837,186.948318 
	C50.873104,188.368073 68.205650,189.872665 85.564873,190.905548 
	C102.133530,191.891388 118.732063,192.758835 135.323364,192.881485 
	C155.278580,193.029007 175.241150,192.388260 195.198242,191.977341 
	C202.662323,191.823669 210.119003,191.331909 217.580734,191.036804 
	C235.000641,190.347824 252.425629,189.030365 269.841309,189.138092 
	C315.426727,189.420074 361.010254,190.218857 406.590210,191.048065 
	C422.517914,191.337830 438.430084,192.401230 454.354614,192.963379 
	C475.605377,193.713547 496.858856,194.414917 518.115723,194.958511 
	C536.571289,195.430466 555.032227,195.733047 573.492615,195.969162 
	C604.615723,196.367264 635.740479,196.939484 666.864136,196.915421 
	C706.986938,196.884399 747.109802,196.393768 787.231567,195.990082 
	C806.525208,195.795975 825.817017,195.381775 845.108337,195.002396 
	C859.069214,194.727859 873.028442,194.362900 886.987610,194.008072 
	C899.114929,193.699814 911.240173,193.309769 923.368042,193.026993 
	C939.493103,192.651001 955.620544,192.375031 971.745544,191.997101 
	C983.540100,191.720657 995.331848,191.321808 1007.126038,191.026840 
	C1021.751526,190.661057 1036.377075,190.263000 1051.005005,190.038132 
	C1061.001221,189.884476 1071.001465,190.003113 1081.000000,190.000000 
z"/>
<path fill="#C57EBB" opacity="1.000000" stroke="none" 
	d="
M1081.000000,120.531342 
	C1063.914673,120.325844 1046.821045,119.814537 1029.746704,118.927780 
	C1015.187256,118.171623 1000.626404,117.246155 986.109375,115.921173 
	C967.492126,114.221962 948.900452,112.200737 930.330322,110.038528 
	C908.474121,107.493713 886.669128,104.507652 864.810425,101.986206 
	C851.003357,100.393539 837.163574,98.799026 823.293518,98.110939 
	C806.029785,97.254501 788.686707,96.530785 771.439453,97.241890 
	C755.772644,97.887848 740.154785,100.283211 724.576416,102.364494 
	C707.526978,104.642326 690.562439,107.547981 673.532776,109.984024 
	C660.761108,111.810974 647.986450,113.907364 635.137512,114.827538 
	C620.895508,115.847466 606.544678,116.332542 592.282471,115.844521 
	C573.254272,115.193398 554.203430,113.960815 535.275574,111.924812 
	C509.128143,109.112251 483.092499,105.269096 456.997345,101.959114 
	C435.664368,99.253197 414.343506,96.404221 392.960602,94.157959 
	C380.770935,92.877434 368.473480,92.538116 356.214020,92.030403 
	C343.929626,91.521660 331.606750,90.675598 319.346130,91.150261 
	C299.818085,91.906265 280.307373,93.392746 260.827637,95.026970 
	C244.669708,96.382515 228.559906,98.332809 212.441833,100.136375 
	C195.673172,102.012733 178.964630,104.699799 162.149078,105.813950 
	C141.278885,107.196747 120.329277,107.691788 99.407478,107.892059 
	C80.789108,108.070274 62.151260,107.602280 43.542068,106.893120 
	C29.644592,106.363510 15.779073,104.995354 1.449661,104.000305 
	C1.000000,102.611107 1.000000,101.222221 1.000000,99.416656 
	C30.983513,99.034966 60.973774,99.486542 90.948853,99.000946 
	C129.652756,98.373940 167.986877,93.513039 206.193085,87.514160 
	C246.338715,81.210770 286.506744,74.464035 327.303101,75.066780 
	C360.606720,75.558815 393.896423,77.219048 427.182831,78.590508 
	C465.202148,80.156975 503.117981,78.861198 540.998657,75.444153 
	C593.736084,70.686943 646.439575,65.391479 699.253357,61.693668 
	C743.209473,58.616032 786.643066,64.269249 829.739136,73.226791 
	C854.162598,78.303223 878.802734,82.544518 903.506897,86.010193 
	C934.144836,90.308289 964.624695,87.601967 994.894226,81.529510 
	C1024.025024,75.685509 1052.128418,66.380165 1080.619019,57.020355 
	C1081.000000,78.020897 1081.000000,99.041786 1081.000000,120.531342 
z"/>
<path fill="#EBCFE4" opacity="1.000000" stroke="none" 
	d="
M1081.000000,189.583344 
	C1071.001465,190.003113 1061.001221,189.884476 1051.005005,190.038132 
	C1036.377075,190.263000 1021.751526,190.661057 1007.126038,191.026840 
	C995.331848,191.321808 983.540100,191.720657 971.745544,191.997101 
	C955.620544,192.375031 939.493103,192.651001 923.368042,193.026993 
	C911.240173,193.309769 899.114929,193.699814 886.987610,194.008072 
	C873.028442,194.362900 859.069214,194.727859 845.108337,195.002396 
	C825.817017,195.381775 806.525208,195.795975 787.231567,195.990082 
	C747.109802,196.393768 706.986938,196.884399 666.864136,196.915421 
	C635.740479,196.939484 604.615723,196.367264 573.492615,195.969162 
	C555.032227,195.733047 536.571289,195.430466 518.115723,194.958511 
	C496.858856,194.414917 475.605377,193.713547 454.354614,192.963379 
	C438.430084,192.401230 422.517914,191.337830 406.590210,191.048065 
	C361.010254,190.218857 315.426727,189.420074 269.841309,189.138092 
	C252.425629,189.030365 235.000641,190.347824 217.580734,191.036804 
	C210.119003,191.331909 202.662323,191.823669 195.198242,191.977341 
	C175.241150,192.388260 155.278580,193.029007 135.323364,192.881485 
	C118.732063,192.758835 102.133530,191.891388 85.564873,190.905548 
	C68.205650,189.872665 50.873104,188.368073 33.538837,186.948318 
	C22.982466,186.083710 12.444875,184.989807 1.449425,183.999435 
	C1.000000,182.285645 1.000000,180.571289 1.000000,178.428467 
	C21.973661,174.001038 42.880852,169.600494 63.939461,166.114731 
	C85.509491,162.544327 107.252388,160.647339 129.161850,159.691376 
	C148.988922,158.826263 168.560745,160.131744 188.184906,161.985657 
	C204.823990,163.557602 221.482056,165.035873 238.059753,167.126282 
	C265.428711,170.577423 292.874329,173.010986 320.440521,171.828369 
	C337.444153,171.098892 354.394257,168.900269 371.338928,167.086182 
	C385.154083,165.607147 398.923279,163.701843 412.716980,162.018951 
	C426.343506,160.356430 439.968994,158.681686 453.607910,157.126160 
	C458.378357,156.582077 463.183228,156.143906 467.979645,156.056290 
	C491.097321,155.634079 514.223511,154.875214 537.334839,155.168503 
	C554.721924,155.389130 572.106018,156.816650 589.464294,158.079727 
	C609.111206,159.509338 628.740295,161.221542 648.354004,163.058060 
	C667.626404,164.862640 686.858276,167.099991 706.129944,168.913315 
	C719.319092,170.154343 732.541443,171.057007 745.756958,171.998642 
	C765.422485,173.399872 785.091187,174.762634 804.766113,176.023743 
	C816.843384,176.797882 828.928406,177.529922 841.021301,177.966034 
	C863.430908,178.774216 885.849548,179.332458 908.263123,180.034912 
	C916.723511,180.300049 925.177917,180.776703 933.639343,180.980820 
	C950.592834,181.389832 967.549622,181.660599 984.504333,182.020447 
	C998.960999,182.327271 1013.416687,182.679092 1027.872803,183.010742 
	C1042.495483,183.346207 1057.119385,183.640884 1071.739990,184.051956 
	C1074.540283,184.130676 1077.327515,184.667023 1080.560425,184.996124 
	C1081.000000,186.388885 1081.000000,187.777786 1081.000000,189.583344 
z"/>
</svg>