<svg version="1.1" id="Layer_1" xmlns="http://www.w3.org/2000/svg" xmlns:xlink="http://www.w3.org/1999/xlink" x="0px" y="0px"
	 width="100%" viewBox="0 0 1080 220" enable-background="new 0 0 1080 220" xml:space="preserve">
<path fill="#020102" opacity="1.000000" stroke="none" 
	d="
M1.000000,50.000000 
	C1.000000,33.672493 1.000000,17.344982 1.000000,1.048602 
	C361.000000,1.048602 721.000000,1.048602 1081.000000,1.048602 
	C1081.000000,26.421461 1081.000000,51.745720 1080.622559,77.418961 
	C1072.895996,76.313835 1065.548950,74.849365 1058.197510,73.407364 
	C1019.088074,65.735886 979.752014,58.935055 939.848694,58.751350 
	C906.568909,58.598133 873.215515,60.165291 840.006042,62.532349 
	C795.791931,65.683784 751.800171,64.374573 707.713501,60.632435 
	C679.515076,58.238918 651.137817,55.534691 622.929321,56.287766 
	C587.354248,57.237495 551.832031,61.174046 516.355835,64.546089 
	C477.449646,68.244164 438.800049,67.039574 400.320343,60.484184 
	C372.912811,55.815033 345.594940,50.618076 318.182129,45.981319 
	C287.098999,40.723732 255.755051,37.979073 224.259155,36.582279 
	C184.056503,34.799355 143.930084,36.173241 103.897545,39.550220 
	C69.548950,42.447723 35.295517,46.473293 1.000000,50.000000 
z"/>
<path fill="#EBCFE4" opacity="1.000000" stroke="none" 
	d="
M1.000000,178.000000 
	C1.000000,162.979111 1.000000,147.958206 1.468657,132.469666 
	C27.065157,132.335388 52.196457,132.510742 77.319572,133.060532 
	C92.754433,133.398315 108.185425,134.151489 123.602638,135.000061 
	C145.298645,136.194214 166.982849,137.609894 188.667145,139.007568 
	C203.395187,139.956879 218.120911,140.956802 232.836609,142.079269 
	C253.328873,143.642349 273.793152,145.626007 294.302490,146.895065 
	C311.870880,147.982132 329.481323,148.490570 347.081238,148.939941 
	C367.705475,149.466537 388.338745,149.633850 408.967499,149.991608 
	C426.597351,150.297333 444.230591,150.509735 461.854553,151.027283 
	C477.621277,151.490295 493.375580,152.360153 509.138641,152.965851 
	C527.897461,153.686646 546.656738,154.743591 565.421326,154.874313 
	C586.880005,155.023819 608.345764,154.368301 629.806091,153.942307 
	C635.274292,153.833771 640.748840,153.425858 646.193848,152.886490 
	C661.853027,151.335373 677.490906,149.567902 693.151672,148.034515 
	C708.160156,146.564987 723.171265,145.067520 738.209473,143.969727 
	C758.883728,142.460464 779.574768,141.111481 800.279175,140.123917 
	C807.710999,139.769424 815.201355,140.689819 822.666748,140.981064 
	C840.093567,141.660965 857.525208,142.226913 874.947876,142.997162 
	C895.510254,143.906189 916.057678,145.196487 936.625732,145.921036 
	C954.911011,146.565140 973.214539,146.856476 991.511841,146.956512 
	C1021.340393,147.119614 1051.170532,147.000198 1081.000000,147.000000 
	C1081.000000,163.687561 1081.000000,180.375122 1080.531372,197.529480 
	C1039.641846,197.331482 999.218750,196.772507 958.801575,195.927475 
	C948.700134,195.716263 938.584351,194.893600 928.534729,193.802872 
	C913.060974,192.123413 897.642944,189.935181 882.193481,188.025894 
	C862.630798,185.608231 843.089355,182.971619 823.484375,180.958481 
	C806.839172,179.249268 790.127380,177.422363 773.426025,177.220337 
	C752.512207,176.967377 731.574585,178.207993 710.656067,179.030243 
	C700.219604,179.440491 689.773499,180.060776 679.383545,181.102448 
	C658.455444,183.200684 637.578369,185.806061 616.651367,187.915878 
	C594.891663,190.109650 573.122498,192.308273 551.311951,193.869522 
	C530.788757,195.338623 510.215149,196.459656 489.647156,196.842026 
	C471.198822,197.184982 452.726410,196.378983 434.267883,195.942429 
	C428.301300,195.801300 422.333923,195.350159 416.386078,194.823975 
	C398.894379,193.276520 381.416992,191.567566 363.924957,190.024139 
	C351.211517,188.902328 338.478668,188.002075 325.763641,186.897125 
	C307.607574,185.319351 289.475647,183.435684 271.304169,182.072174 
	C254.268387,180.793884 237.203491,179.816071 220.135284,179.080582 
	C199.385925,178.186447 178.619720,177.124237 157.860748,177.122894 
	C105.573845,177.119461 53.286915,177.670929 1.000000,178.000000 
z"/>
<path fill="#D49AC9" opacity="1.000000" stroke="none" 
	d="
M1081.000000,104.000000 
	C1081.000000,107.030594 1081.000000,110.061188 1080.579102,113.566750 
	C1072.565552,114.694962 1064.979858,115.445129 1057.378662,115.973579 
	C1050.092773,116.480110 1042.780884,116.621857 1035.498047,117.161499 
	C1019.300598,118.361687 1003.117615,119.755295 986.922119,120.982498 
	C976.502808,121.772011 966.057068,122.238213 955.649170,123.147575 
	C938.650391,124.632820 921.681763,126.463936 904.683411,127.954887 
	C891.141296,129.142700 877.576050,130.071884 864.016968,131.059708 
	C845.662842,132.396866 827.311340,134.639069 808.946899,134.764252 
	C780.693420,134.956848 752.417419,134.004639 724.174927,132.916595 
	C704.464233,132.157227 684.797729,130.294296 665.103882,129.042801 
	C647.884705,127.948578 630.664062,126.804718 613.427307,126.082207 
	C598.143433,125.441544 582.837402,125.153542 567.539490,125.085899 
	C557.410400,125.041107 547.280457,125.793076 537.147156,125.955620 
	C511.353210,126.369408 485.556580,126.970215 459.762115,126.920219 
	C409.803009,126.823395 359.844421,126.361885 309.886261,125.965698 
	C303.086548,125.911766 296.291534,125.346214 289.492950,125.048668 
	C266.102234,124.024956 242.707626,123.083656 219.321198,121.970238 
	C208.053986,121.433823 196.787949,120.751511 185.546280,119.831184 
	C172.008469,118.722870 158.490875,117.352821 144.976257,115.980614 
	C133.772064,114.843002 122.578140,113.595833 111.392044,112.291092 
	C99.708649,110.928368 88.039040,109.447006 76.365273,108.002449 
	C64.201454,106.497253 52.029404,105.052666 39.880123,103.437401 
	C26.908401,101.712784 13.959092,99.819603 1.000000,98.000000 
	C1.000000,97.250000 1.000000,96.500000 1.460331,95.375801 
	C16.806892,93.952446 31.704451,93.041084 46.576431,91.818596 
	C64.407745,90.352844 82.213226,88.575668 100.037544,87.021034 
	C112.752266,85.912056 125.493546,85.094170 138.198059,83.884605 
	C157.490005,82.047882 176.744339,79.806343 196.044571,78.069237 
	C213.542679,76.494347 231.061203,74.777046 248.606400,74.191200 
	C269.009674,73.509926 289.461334,73.596207 309.874054,74.090149 
	C327.110779,74.507248 344.328796,75.878639 361.542114,77.023506 
	C374.441864,77.881470 387.323151,79.023468 400.208649,80.087730 
	C419.695099,81.697197 439.155273,83.750336 458.669525,84.859428 
	C475.096649,85.793068 491.584106,85.837082 508.046570,85.914154 
	C518.174377,85.961571 528.304199,85.101868 538.435181,85.049446 
	C565.191833,84.910988 591.949951,84.899597 618.706604,85.028320 
	C629.337097,85.079460 639.969116,85.538872 650.593567,85.978043 
	C673.485168,86.924309 696.364624,88.502716 719.263550,88.840630 
	C742.379272,89.181770 765.521729,88.627678 788.634949,87.905235 
	C803.374573,87.444527 818.094482,86.112869 832.801514,84.906700 
	C855.259460,83.064850 877.664856,80.271675 900.155090,79.221603 
	C923.047546,78.152740 945.973511,78.979187 968.820251,81.823189 
	C996.024841,85.209656 1022.854919,90.350815 1049.456665,96.876961 
	C1059.923706,99.444817 1070.482788,101.636833 1081.000000,104.000000 
z"/>
<path fill="#F7E9F3" opacity="1.000000" stroke="none" 
	d="
M1.000000,178.468658 
	C53.286915,177.670929 105.573845,177.119461 157.860748,177.122894 
	C178.619720,177.124237 199.385925,178.186447 220.135284,179.080582 
	C237.203491,179.816071 254.268387,180.793884 271.304169,182.072174 
	C289.475647,183.435684 307.607574,185.319351 325.763641,186.897125 
	C338.478668,188.002075 351.211517,188.902328 363.924957,190.024139 
	C381.416992,191.567566 398.894379,193.276520 416.386078,194.823975 
	C422.333923,195.350159 428.301300,195.801300 434.267883,195.942429 
	C452.726410,196.378983 471.198822,197.184982 489.647156,196.842026 
	C510.215149,196.459656 530.788757,195.338623 551.311951,193.869522 
	C573.122498,192.308273 594.891663,190.109650 616.651367,187.915878 
	C637.578369,185.806061 658.455444,183.200684 679.383545,181.102448 
	C689.773499,180.060776 700.219604,179.440491 710.656067,179.030243 
	C731.574585,178.207993 752.512207,176.967377 773.426025,177.220337 
	C790.127380,177.422363 806.839172,179.249268 823.484375,180.958481 
	C843.089355,182.971619 862.630798,185.608231 882.193481,188.025894 
	C897.642944,189.935181 913.060974,192.123413 928.534729,193.802872 
	C938.584351,194.893600 948.700134,195.716263 958.801575,195.927475 
	C999.218750,196.772507 1039.641846,197.331482 1080.531372,197.998138 
	C1081.000000,205.663742 1081.000000,213.327484 1081.000000,220.960602 
	C721.000000,220.960602 361.000000,220.960602 1.000000,220.960602 
	C1.000000,206.926590 1.000000,192.931946 1.000000,178.468658 
z"/>
<path fill="#C57EBB" opacity="1.000000" stroke="none" 
	d="
M1081.000000,103.531357 
	C1070.482788,101.636833 1059.923706,99.444817 1049.456665,96.876961 
	C1022.854919,90.350815 996.024841,85.209656 968.820251,81.823189 
	C945.973511,78.979187 923.047546,78.152740 900.155090,79.221603 
	C877.664856,80.271675 855.259460,83.064850 832.801514,84.906700 
	C818.094482,86.112869 803.374573,87.444527 788.634949,87.905235 
	C765.521729,88.627678 742.379272,89.181770 719.263550,88.840630 
	C696.364624,88.502716 673.485168,86.924309 650.593567,85.978043 
	C639.969116,85.538872 629.337097,85.079460 618.706604,85.028320 
	C591.949951,84.899597 565.191833,84.910988 538.435181,85.049446 
	C528.304199,85.101868 518.174377,85.961571 508.046570,85.914154 
	C491.584106,85.837082 475.096649,85.793068 458.669525,84.859428 
	C439.155273,83.750336 419.695099,81.697197 400.208649,80.087730 
	C387.323151,79.023468 374.441864,77.881470 361.542114,77.023506 
	C344.328796,75.878639 327.110779,74.507248 309.874054,74.090149 
	C289.461334,73.596207 269.009674,73.509926 248.606400,74.191200 
	C231.061203,74.777046 213.542679,76.494347 196.044571,78.069237 
	C176.744339,79.806343 157.490005,82.047882 138.198059,83.884605 
	C125.493546,85.094170 112.752266,85.912056 100.037544,87.021034 
	C82.213226,88.575668 64.407745,90.352844 46.576431,91.818596 
	C31.704451,93.041084 16.806892,93.952446 1.460331,95.000801 
	C1.000000,80.312439 1.000000,65.624878 1.000000,50.468658 
	C35.295517,46.473293 69.548950,42.447723 103.897545,39.550220 
	C143.930084,36.173241 184.056503,34.799355 224.259155,36.582279 
	C255.755051,37.979073 287.098999,40.723732 318.182129,45.981319 
	C345.594940,50.618076 372.912811,55.815033 400.320343,60.484184 
	C438.800049,67.039574 477.449646,68.244164 516.355835,64.546089 
	C551.832031,61.174046 587.354248,57.237495 622.929321,56.287766 
	C651.137817,55.534691 679.515076,58.238918 707.713501,60.632435 
	C751.800171,64.374573 795.791931,65.683784 840.006042,62.532349 
	C873.215515,60.165291 906.568909,58.598133 939.848694,58.751350 
	C979.752014,58.935055 1019.088074,65.735886 1058.197510,73.407364 
	C1065.548950,74.849365 1072.895996,76.313835 1080.622559,77.883972 
	C1081.000000,86.354233 1081.000000,94.708466 1081.000000,103.531357 
z"/>
<path fill="#E0B5D6" opacity="1.000000" stroke="none" 
	d="
M1.000000,98.468658 
	C13.959092,99.819603 26.908401,101.712784 39.880123,103.437401 
	C52.029404,105.052666 64.201454,106.497253 76.365273,108.002449 
	C88.039040,109.447006 99.708649,110.928368 111.392044,112.291092 
	C122.578140,113.595833 133.772064,114.843002 144.976257,115.980614 
	C158.490875,117.352821 172.008469,118.722870 185.546280,119.831184 
	C196.787949,120.751511 208.053986,121.433823 219.321198,121.970238 
	C242.707626,123.083656 266.102234,124.024956 289.492950,125.048668 
	C296.291534,125.346214 303.086548,125.911766 309.886261,125.965698 
	C359.844421,126.361885 409.803009,126.823395 459.762115,126.920219 
	C485.556580,126.970215 511.353210,126.369408 537.147156,125.955620 
	C547.280457,125.793076 557.410400,125.041107 567.539490,125.085899 
	C582.837402,125.153542 598.143433,125.441544 613.427307,126.082207 
	C630.664062,126.804718 647.884705,127.948578 665.103882,129.042801 
	C684.797729,130.294296 704.464233,132.157227 724.174927,132.916595 
	C752.417419,134.004639 780.693420,134.956848 808.946899,134.764252 
	C827.311340,134.639069 845.662842,132.396866 864.016968,131.059708 
	C877.576050,130.071884 891.141296,129.142700 904.683411,127.954887 
	C921.681763,126.463936 938.650391,124.632820 955.649170,123.147575 
	C966.057068,122.238213 976.502808,121.772011 986.922119,120.982498 
	C1003.117615,119.755295 1019.300598,118.361687 1035.498047,117.161499 
	C1042.780884,116.621857 1050.092773,116.480110 1057.378662,115.973579 
	C1064.979858,115.445129 1072.565552,114.694962 1080.579102,114.020859 
	C1081.000000,124.687561 1081.000000,135.375122 1081.000000,146.531342 
	C1051.170532,147.000198 1021.340393,147.119614 991.511841,146.956512 
	C973.214539,146.856476 954.911011,146.565140 936.625732,145.921036 
	C916.057678,145.196487 895.510254,143.906189 874.947876,142.997162 
	C857.525208,142.226913 840.093567,141.660965 822.666748,140.981064 
	C815.201355,140.689819 807.710999,139.769424 800.279175,140.123917 
	C779.574768,141.111481 758.883728,142.460464 738.209473,143.969727 
	C723.171265,145.067520 708.160156,146.564987 693.151672,148.034515 
	C677.490906,149.567902 661.853027,151.335373 646.193848,152.886490 
	C640.748840,153.425858 635.274292,153.833771 629.806091,153.942307 
	C608.345764,154.368301 586.880005,155.023819 565.421326,154.874313 
	C546.656738,154.743591 527.897461,153.686646 509.138641,152.965851 
	C493.375580,152.360153 477.621277,151.490295 461.854553,151.027283 
	C444.230591,150.509735 426.597351,150.297333 408.967499,149.991608 
	C388.338745,149.633850 367.705475,149.466537 347.081238,148.939941 
	C329.481323,148.490570 311.870880,147.982132 294.302490,146.895065 
	C273.793152,145.626007 253.328873,143.642349 232.836609,142.079269 
	C218.120911,140.956802 203.395187,139.956879 188.667145,139.007568 
	C166.982849,137.609894 145.298645,136.194214 123.602638,135.000061 
	C108.185425,134.151489 92.754433,133.398315 77.319572,133.060532 
	C52.196457,132.510742 27.065157,132.335388 1.468657,132.001007 
	C1.000000,120.979103 1.000000,109.958214 1.000000,98.468658 
z"/>
</svg>