<svg version="1.1" id="Layer_1" xmlns="http://www.w3.org/2000/svg" xmlns:xlink="http://www.w3.org/1999/xlink" x="0px" y="0px"
	 width="100%" viewBox="0 0 1080 222" enable-background="new 0 0 1080 222" xml:space="preserve">
<path fill="#010101" opacity="1.000000" stroke="none" 
	d="
M1081.000000,125.000000 
	C1081.000000,157.655273 1081.000000,190.310547 1081.000000,222.960663 
	C721.000000,222.955505 361.000000,222.955505 1.000000,222.955505 
	C1.000000,204.584000 1.000000,186.257019 1.381000,167.444641 
	C29.871452,157.619904 57.974701,148.314590 87.105263,142.470596 
	C117.374771,136.398117 147.854660,133.691666 178.492630,137.989777 
	C203.196793,141.455414 227.836990,145.696640 252.260452,150.773102 
	C295.356506,159.730698 338.790070,165.383926 382.746277,162.306320 
	C435.560059,158.608521 488.263641,153.313141 541.001099,148.555878 
	C578.881775,145.138779 616.797668,143.843033 654.816956,145.409454 
	C688.103394,146.780884 721.393127,148.441147 754.696716,148.933212 
	C795.493164,149.535995 835.661133,142.789200 875.806824,136.485809 
	C914.013062,130.486969 952.347168,125.626030 991.051147,124.999039 
	C1021.026184,124.513451 1051.016479,124.965034 1081.000000,125.000000 
z"/>
<path fill="#E0B5D6" opacity="1.000000" stroke="none" 
	d="
M1.000000,86.000000 
	C1.000000,70.645775 1.000000,55.291546 1.439592,39.472519 
	C4.671450,39.332947 7.457780,39.869312 10.256976,39.948013 
	C24.877621,40.359070 39.501537,40.653740 54.124310,40.989193 
	C68.580475,41.320824 83.036217,41.672661 97.492905,41.979488 
	C114.447685,42.339340 131.404495,42.610104 148.358032,43.019104 
	C156.819458,43.223232 165.273956,43.699860 173.734344,43.965008 
	C196.148026,44.667458 218.566666,45.225723 240.976395,46.033913 
	C253.069305,46.470032 265.154327,47.202061 277.231659,47.976192 
	C296.906616,49.237316 316.575348,50.600098 336.240936,52.001308 
	C349.456512,52.942951 362.678955,53.845585 375.868134,55.086590 
	C395.139862,56.899921 414.371765,59.137249 433.644226,60.941814 
	C453.257965,62.778336 472.887115,64.490570 492.534027,65.920197 
	C509.892426,67.183296 527.276550,68.610794 544.663696,68.831451 
	C567.775085,69.124748 590.901306,68.365921 614.019043,67.943733 
	C618.815552,67.856140 623.620361,67.418106 628.390869,66.874023 
	C642.029846,65.318451 655.655334,63.643574 669.281921,61.981056 
	C683.075562,60.298153 696.844910,58.392998 710.660034,56.913975 
	C727.604797,55.099888 744.554932,52.901119 761.558655,52.171661 
	C789.124878,50.989071 816.570557,53.422417 843.939636,56.873669 
	C860.517395,58.964134 877.175415,60.442745 893.814575,62.014214 
	C913.438843,63.867607 933.010681,65.174156 952.837891,64.308762 
	C974.747437,63.352478 996.490356,61.455639 1018.060425,57.885269 
	C1039.119141,54.399570 1060.026367,49.998974 1081.000000,46.000004 
	C1081.000000,62.020893 1081.000000,78.041786 1080.583740,94.517921 
	C1078.709717,94.659164 1077.266479,94.225090 1075.792358,94.049492 
	C1058.376221,91.974876 1040.980469,89.684120 1023.528748,87.966194 
	C1006.886841,86.327988 990.205017,84.666435 973.505310,84.139755 
	C944.437256,83.222992 915.401123,84.151161 886.486877,87.900215 
	C872.539490,89.708649 858.501343,90.858932 844.484375,92.078293 
	C827.987549,93.513397 811.485840,95.381035 794.954956,95.786545 
	C780.893494,96.131462 766.759888,95.017342 752.709412,93.902977 
	C739.359741,92.844177 726.063660,91.050186 712.767456,89.391739 
	C699.306213,87.712708 685.893250,85.638412 672.422485,84.046844 
	C661.409973,82.745712 650.363525,81.451279 639.296387,80.961647 
	C624.023499,80.285950 608.697632,79.792763 593.430786,80.304497 
	C580.393066,80.741516 567.403992,82.680176 554.398193,84.002144 
	C540.894653,85.374710 527.402527,86.859795 513.895264,88.193504 
	C500.391052,89.526909 486.881592,91.675293 473.361481,91.778992 
	C452.282776,91.940666 431.188080,90.803734 410.110382,89.961113 
	C400.513550,89.577461 390.933197,88.674248 381.359680,87.841980 
	C367.509949,86.637970 353.678314,85.226120 339.828674,84.021400 
	C333.717743,83.489830 327.585907,83.048256 321.455994,82.914955 
	C304.499969,82.546196 287.521515,81.757812 270.586823,82.276207 
	C254.219894,82.777229 237.899094,84.733482 221.553009,85.984886 
	C211.638779,86.743889 201.712494,87.344490 191.796066,88.076180 
	C174.452469,89.355888 157.126312,91.493690 139.767273,91.794075 
	C114.990524,92.222794 90.189774,91.375092 65.401451,90.946709 
	C59.105091,90.837891 52.807499,90.370689 46.526913,89.864273 
	C31.346111,88.640213 16.175011,87.295860 1.000000,86.000000 
z"/>
<path fill="#D49AC9" opacity="1.000000" stroke="none" 
	d="
M1.000000,86.467606 
	C16.175011,87.295860 31.346111,88.640213 46.526913,89.864273 
	C52.807499,90.370689 59.105091,90.837891 65.401451,90.946709 
	C90.189774,91.375092 114.990524,92.222794 139.767273,91.794075 
	C157.126312,91.493690 174.452469,89.355888 191.796066,88.076180 
	C201.712494,87.344490 211.638779,86.743889 221.553009,85.984886 
	C237.899094,84.733482 254.219894,82.777229 270.586823,82.276207 
	C287.521515,81.757812 304.499969,82.546196 321.455994,82.914955 
	C327.585907,83.048256 333.717743,83.489830 339.828674,84.021400 
	C353.678314,85.226120 367.509949,86.637970 381.359680,87.841980 
	C390.933197,88.674248 400.513550,89.577461 410.110382,89.961113 
	C431.188080,90.803734 452.282776,91.940666 473.361481,91.778992 
	C486.881592,91.675293 500.391052,89.526909 513.895264,88.193504 
	C527.402527,86.859795 540.894653,85.374710 554.398193,84.002144 
	C567.403992,82.680176 580.393066,80.741516 593.430786,80.304497 
	C608.697632,79.792763 624.023499,80.285950 639.296387,80.961647 
	C650.363525,81.451279 661.409973,82.745712 672.422485,84.046844 
	C685.893250,85.638412 699.306213,87.712708 712.767456,89.391739 
	C726.063660,91.050186 739.359741,92.844177 752.709412,93.902977 
	C766.759888,95.017342 780.893494,96.131462 794.954956,95.786545 
	C811.485840,95.381035 827.987549,93.513397 844.484375,92.078293 
	C858.501343,90.858932 872.539490,89.708649 886.486877,87.900215 
	C915.401123,84.151161 944.437256,83.222992 973.505310,84.139755 
	C990.205017,84.666435 1006.886841,86.327988 1023.528748,87.966194 
	C1040.980469,89.684120 1058.376221,91.974876 1075.792358,94.049492 
	C1077.266479,94.225090 1078.709717,94.659164 1080.583740,94.986580 
	C1081.000000,103.020897 1081.000000,111.041801 1080.550293,119.531036 
	C1066.220459,119.004631 1052.354736,117.636467 1038.456787,117.106842 
	C1019.847656,116.397682 1001.209839,115.929680 982.591492,116.107910 
	C961.669678,116.308189 940.720093,116.803246 919.849915,118.186073 
	C903.034363,119.300240 886.325867,121.987366 869.557251,123.863724 
	C853.439209,125.667282 837.329407,127.617561 821.171509,128.973068 
	C801.691833,130.607269 782.181091,132.093719 762.653076,132.849716 
	C750.392456,133.324387 738.069641,132.478348 725.785278,131.969604 
	C713.525757,131.461899 701.228271,131.122559 689.038635,129.842026 
	C667.655823,127.595757 646.334961,124.746788 625.002075,122.040840 
	C598.906921,118.730843 572.871277,114.887688 546.723877,112.075119 
	C527.796082,110.039131 508.745209,108.806587 489.717041,108.155479 
	C475.454895,107.667465 461.104065,108.152557 446.862061,109.172485 
	C434.013123,110.092659 421.238525,112.189041 408.466797,114.016022 
	C391.437225,116.452065 374.472656,119.357765 357.423248,121.635590 
	C341.844940,123.716881 326.227112,126.112160 310.560272,126.758087 
	C293.313019,127.469185 275.970001,126.745506 258.706268,125.889069 
	C244.836243,125.200981 230.996429,123.606422 217.189407,122.013756 
	C195.330704,119.492302 173.525742,116.506264 151.669556,113.961464 
	C133.099426,111.799263 114.507736,109.778046 95.890495,108.078827 
	C81.373558,106.753838 66.812637,105.828354 52.253250,105.072189 
	C35.179012,104.185440 18.085278,103.674149 1.000000,103.000000 
	C1.000000,97.645073 1.000000,92.290138 1.000000,86.467606 
z"/>
<path fill="#F7E9F3" opacity="1.000000" stroke="none" 
	d="
M1.000000,34.000000 
	C1.000000,23.004128 1.000000,12.008256 1.000000,1.041068 
	C361.000000,1.041068 721.000000,1.041068 1081.000000,1.041068 
	C1081.000000,13.744062 1081.000000,26.405991 1080.550537,39.534546 
	C1069.554321,39.010197 1059.016113,37.916214 1048.458984,37.051540 
	C1031.124756,35.631786 1013.792297,34.127197 996.433044,33.094337 
	C979.864441,32.108509 963.265930,31.241138 946.674622,31.118496 
	C926.719482,30.970985 906.756958,31.611673 886.799927,32.022606 
	C879.335876,32.176300 871.879211,32.668167 864.417480,32.963280 
	C846.997620,33.652241 829.572632,34.969608 812.156982,34.861870 
	C766.571655,34.579868 720.988220,33.781109 675.408325,32.951908 
	C659.480652,32.662140 643.568542,31.598824 627.644043,31.036671 
	C606.393311,30.286493 585.139893,29.585114 563.883057,29.041508 
	C545.427490,28.569540 526.966614,28.266954 508.506287,28.030838 
	C477.383240,27.632757 446.258545,27.060583 415.134949,27.084642 
	C375.012268,27.115656 334.889465,27.606241 294.767822,28.009899 
	C275.474182,28.204010 256.182434,28.618242 236.891113,28.997601 
	C222.930267,29.272135 208.971085,29.637096 195.011932,29.991922 
	C182.884689,30.300184 170.759415,30.690239 158.631622,30.973003 
	C142.506577,31.348969 126.379196,31.624893 110.254204,32.002842 
	C98.459641,32.279293 86.667984,32.678173 74.873802,32.973148 
	C60.248329,33.338924 45.622860,33.736938 30.994940,33.961796 
	C20.998793,34.115452 10.998461,33.996868 1.000000,34.000000 
z"/>
<path fill="#C57EBB" opacity="1.000000" stroke="none" 
	d="
M1.000000,103.468658 
	C18.085278,103.674149 35.179012,104.185440 52.253250,105.072189 
	C66.812637,105.828354 81.373558,106.753838 95.890495,108.078827 
	C114.507736,109.778046 133.099426,111.799263 151.669556,113.961464 
	C173.525742,116.506264 195.330704,119.492302 217.189407,122.013756 
	C230.996429,123.606422 244.836243,125.200981 258.706268,125.889069 
	C275.970001,126.745506 293.313019,127.469185 310.560272,126.758087 
	C326.227112,126.112160 341.844940,123.716881 357.423248,121.635590 
	C374.472656,119.357765 391.437225,116.452065 408.466797,114.016022 
	C421.238525,112.189041 434.013123,110.092659 446.862061,109.172485 
	C461.104065,108.152557 475.454895,107.667465 489.717041,108.155479 
	C508.745209,108.806587 527.796082,110.039131 546.723877,112.075119 
	C572.871277,114.887688 598.906921,118.730843 625.002075,122.040840 
	C646.334961,124.746788 667.655823,127.595757 689.038635,129.842026 
	C701.228271,131.122559 713.525757,131.461899 725.785278,131.969604 
	C738.069641,132.478348 750.392456,133.324387 762.653076,132.849716 
	C782.181091,132.093719 801.691833,130.607269 821.171509,128.973068 
	C837.329407,127.617561 853.439209,125.667282 869.557251,123.863724 
	C886.325867,121.987366 903.034363,119.300240 919.849915,118.186073 
	C940.720093,116.803246 961.669678,116.308189 982.591492,116.107910 
	C1001.209839,115.929680 1019.847656,116.397682 1038.456787,117.106842 
	C1052.354736,117.636467 1066.220459,119.004631 1080.550293,119.999695 
	C1081.000000,121.388893 1081.000000,122.777779 1081.000000,124.583336 
	C1051.016479,124.965034 1021.026184,124.513451 991.051147,124.999039 
	C952.347168,125.626030 914.013062,130.486969 875.806824,136.485809 
	C835.661133,142.789200 795.493164,149.535995 754.696716,148.933212 
	C721.393127,148.441147 688.103394,146.780884 654.816956,145.409454 
	C616.797668,143.843033 578.881775,145.138779 541.001099,148.555878 
	C488.263641,153.313141 435.560059,158.608521 382.746277,162.306320 
	C338.790070,165.383926 295.356506,159.730698 252.260452,150.773102 
	C227.836990,145.696640 203.196793,141.455414 178.492630,137.989777 
	C147.854660,133.691666 117.374771,136.398117 87.105263,142.470596 
	C57.974701,148.314590 29.871452,157.619904 1.381000,166.979645 
	C1.000000,145.979111 1.000000,124.958214 1.000000,103.468658 
z"/>
<path fill="#EBCFE4" opacity="1.000000" stroke="none" 
	d="
M1.000000,34.416664 
	C10.998461,33.996868 20.998793,34.115452 30.994940,33.961796 
	C45.622860,33.736938 60.248329,33.338924 74.873802,32.973148 
	C86.667984,32.678173 98.459641,32.279293 110.254204,32.002842 
	C126.379196,31.624893 142.506577,31.348969 158.631622,30.973003 
	C170.759415,30.690239 182.884689,30.300184 195.011932,29.991922 
	C208.971085,29.637096 222.930267,29.272135 236.891113,28.997601 
	C256.182434,28.618242 275.474182,28.204010 294.767822,28.009899 
	C334.889465,27.606241 375.012268,27.115656 415.134949,27.084642 
	C446.258545,27.060583 477.383240,27.632757 508.506287,28.030838 
	C526.966614,28.266954 545.427490,28.569540 563.883057,29.041508 
	C585.139893,29.585114 606.393311,30.286493 627.644043,31.036671 
	C643.568542,31.598824 659.480652,32.662140 675.408325,32.951908 
	C720.988220,33.781109 766.571655,34.579868 812.156982,34.861870 
	C829.572632,34.969608 846.997620,33.652241 864.417480,32.963280 
	C871.879211,32.668167 879.335876,32.176300 886.799927,32.022606 
	C906.756958,31.611673 926.719482,30.970985 946.674622,31.118496 
	C963.265930,31.241138 979.864441,32.108509 996.433044,33.094337 
	C1013.792297,34.127197 1031.124756,35.631786 1048.458984,37.051540 
	C1059.016113,37.916214 1069.554321,39.010197 1080.550537,40.000587 
	C1081.000000,41.714359 1081.000000,43.428715 1081.000000,45.571541 
	C1060.026367,49.998974 1039.119141,54.399570 1018.060425,57.885269 
	C996.490356,61.455639 974.747437,63.352478 952.837891,64.308762 
	C933.010681,65.174156 913.438843,63.867607 893.814575,62.014214 
	C877.175415,60.442745 860.517395,58.964134 843.939636,56.873669 
	C816.570557,53.422417 789.124878,50.989071 761.558655,52.171661 
	C744.554932,52.901119 727.604797,55.099888 710.660034,56.913975 
	C696.844910,58.392998 683.075562,60.298153 669.281921,61.981056 
	C655.655334,63.643574 642.029846,65.318451 628.390869,66.874023 
	C623.620361,67.418106 618.815552,67.856140 614.019043,67.943733 
	C590.901306,68.365921 567.775085,69.124748 544.663696,68.831451 
	C527.276550,68.610794 509.892426,67.183296 492.534027,65.920197 
	C472.887115,64.490570 453.257965,62.778336 433.644226,60.941814 
	C414.371765,59.137249 395.139862,56.899921 375.868134,55.086590 
	C362.678955,53.845585 349.456512,52.942951 336.240936,52.001308 
	C316.575348,50.600098 296.906616,49.237316 277.231659,47.976192 
	C265.154327,47.202061 253.069305,46.470032 240.976395,46.033913 
	C218.566666,45.225723 196.148026,44.667458 173.734344,43.965008 
	C165.273956,43.699860 156.819458,43.223232 148.358032,43.019104 
	C131.404495,42.610104 114.447685,42.339340 97.492905,41.979488 
	C83.036217,41.672661 68.580475,41.320824 54.124310,40.989193 
	C39.501537,40.653740 24.877621,40.359070 10.256976,39.948013 
	C7.457780,39.869312 4.671450,39.332947 1.439592,39.003860 
	C1.000000,37.611111 1.000000,36.222221 1.000000,34.416664 
z"/>
</svg>