<svg version="1.1" id="Layer_1" xmlns="http://www.w3.org/2000/svg" xmlns:xlink="http://www.w3.org/1999/xlink" x="0px" y="0px"
	 width="100%" viewBox="0 0 734 100" enable-background="new 0 0 734 100" xml:space="preserve">
<path fill="#F7E9F3" opacity="1.000000" stroke="none" 
	d="
M1.000000,32.000000 
	C1.000000,21.672363 1.000000,11.344726 1.000000,1.039019 
	C245.666672,1.039019 490.333344,1.039019 735.000000,1.039019 
	C735.000000,10.406253 735.000000,19.734468 734.532104,29.550285 
	C727.601379,29.715240 721.140381,29.347832 714.675232,29.078650 
	C697.753235,28.374084 680.830200,27.168175 663.906189,27.144939 
	C626.628784,27.093756 589.350891,27.709665 552.072510,27.941404 
	C489.143616,28.332600 426.213928,28.587748 363.285309,29.009012 
	C345.327576,29.129227 327.371979,29.605360 309.416138,29.955446 
	C293.624786,30.263329 277.833801,30.596252 262.043884,30.968740 
	C249.916473,31.254827 237.791946,31.666130 225.664291,31.938276 
	C208.708359,32.318771 191.749741,32.946800 174.793915,32.898529 
	C116.862221,32.733616 58.931248,32.319218 1.000000,32.000000 
z"/>
<path fill="#020202" opacity="1.000000" stroke="none" 
	d="
M735.000000,71.000000 
	C735.000000,80.994469 735.000000,90.988930 735.000000,100.961502 
	C490.333344,100.961502 245.666656,100.961502 1.000000,100.961502 
	C1.000000,92.261108 1.000000,83.599220 1.468657,74.467667 
	C15.765899,73.904724 29.605598,74.137703 43.421322,73.667007 
	C163.227036,69.585251 282.959503,72.863205 402.713867,76.388298 
	C447.658356,77.711296 492.687012,77.307076 537.654175,76.460266 
	C603.447083,75.221275 669.219055,72.874603 735.000000,71.000000 
z"/>
<path fill="#C57EBB" opacity="1.000000" stroke="none" 
	d="
M735.000000,70.531731 
	C669.219055,72.874603 603.447083,75.221275 537.654175,76.460266 
	C492.687012,77.307076 447.658356,77.711296 402.713867,76.388298 
	C282.959503,72.863205 163.227036,69.585251 43.421322,73.667007 
	C29.605598,74.137703 15.765899,73.904724 1.468657,73.999001 
	C1.000000,66.312424 1.000000,58.624847 1.433335,50.458504 
	C28.930429,49.001808 55.992458,47.969707 83.059853,47.105728 
	C87.013657,46.979527 90.988251,47.802483 94.961502,47.931839 
	C107.425629,48.337635 119.892883,48.658714 132.360489,48.944107 
	C148.659683,49.317207 164.959976,49.863838 181.260513,49.890041 
	C196.060135,49.913830 210.862076,49.393528 225.660263,49.007950 
	C232.963638,48.817650 240.260010,48.370224 247.560959,48.073517 
	C272.792358,47.048122 298.021729,45.299423 323.256866,45.207291 
	C355.351990,45.090111 387.458160,46.111027 419.547028,47.063866 
	C433.794098,47.486916 448.011292,48.933018 462.240570,49.935665 
	C485.901276,51.602901 509.551788,53.431961 533.224182,54.911629 
	C548.306641,55.854378 563.420532,56.832840 578.520874,56.842106 
	C612.318481,56.862839 646.117004,56.333813 679.913696,55.912201 
	C685.881165,55.837757 691.845093,55.246277 697.804565,54.810287 
	C710.205200,53.903065 722.601746,52.940075 735.000000,52.000000 
	C735.000000,58.021152 735.000000,64.042305 735.000000,70.531731 
z"/>
<path fill="#E0B5D6" opacity="1.000000" stroke="none" 
	d="
M735.000000,51.531425 
	C722.601746,52.940075 710.205200,53.903065 697.804565,54.810287 
	C691.845093,55.246277 685.881165,55.837757 679.913696,55.912201 
	C646.117004,56.333813 612.318481,56.862839 578.520874,56.842106 
	C563.420532,56.832840 548.306641,55.854378 533.224182,54.911629 
	C509.551788,53.431961 485.901276,51.602901 462.240570,49.935665 
	C448.011292,48.933018 433.794098,47.486916 419.547028,47.063866 
	C387.458160,46.111027 355.351990,45.090111 323.256866,45.207291 
	C298.021729,45.299423 272.792358,47.048122 247.560959,48.073517 
	C240.260010,48.370224 232.963638,48.817650 225.660263,49.007950 
	C210.862076,49.393528 196.060135,49.913830 181.260513,49.890041 
	C164.959976,49.863838 148.659683,49.317207 132.360489,48.944107 
	C119.892883,48.658714 107.425629,48.337635 94.961502,47.931839 
	C90.988251,47.802483 87.013657,46.979527 83.059853,47.105728 
	C55.992458,47.969707 28.930429,49.001808 1.433335,49.989868 
	C1.000000,44.311958 1.000000,38.623920 1.000000,32.467941 
	C58.931248,32.319218 116.862221,32.733616 174.793915,32.898529 
	C191.749741,32.946800 208.708359,32.318771 225.664291,31.938276 
	C237.791946,31.666130 249.916473,31.254827 262.043884,30.968740 
	C277.833801,30.596252 293.624786,30.263329 309.416138,29.955446 
	C327.371979,29.605360 345.327576,29.129227 363.285309,29.009012 
	C426.213928,28.587748 489.143616,28.332600 552.072510,27.941404 
	C589.350891,27.709665 626.628784,27.093756 663.906189,27.144939 
	C680.830200,27.168175 697.753235,28.374084 714.675232,29.078650 
	C721.140381,29.347832 727.601379,29.715240 734.532104,30.018944 
	C735.000000,37.020947 735.000000,44.041897 735.000000,51.531425 
z"/>
</svg>