<svg version="1.1" id="Layer_1" xmlns="http://www.w3.org/2000/svg" xmlns:xlink="http://www.w3.org/1999/xlink" x="0px" y="0px"
	 width="100%" viewBox="0 0 816 108" enable-background="new 0 0 816 108" xml:space="preserve">
<path fill="#020202" opacity="1.000000" stroke="none" 
	d="
M1.000000,26.000000 
	C1.000000,17.670786 1.000000,9.341572 1.000000,1.042023 
	C273.000000,1.042023 545.000000,1.042023 817.000000,1.042023 
	C817.000000,14.410794 817.000000,27.737543 816.570068,41.604958 
	C807.489258,42.577045 798.837952,43.002811 790.187378,43.440826 
	C740.907288,45.936073 691.608032,46.053967 642.298767,44.571915 
	C585.352539,42.860329 528.415283,40.044113 471.460724,39.653316 
	C418.177277,39.287712 364.875122,41.409801 311.583527,42.547302 
	C276.894073,43.287746 242.315643,41.744022 207.798096,38.296947 
	C171.014938,34.623623 134.274582,30.138828 97.400993,27.869820 
	C65.350334,25.897587 33.139851,26.522701 1.000000,26.000000 
z"/>
<path fill="#E0B5D6" opacity="1.000000" stroke="none" 
	d="
M817.000000,63.000000 
	C817.000000,67.356903 817.000000,71.713799 816.531616,76.553177 
	C777.964844,77.676537 739.861572,78.115562 701.770752,79.059959 
	C687.012024,79.425873 672.278076,80.885826 657.539124,81.935303 
	C634.686523,83.562515 611.852539,85.483742 588.985840,86.871979 
	C567.593323,88.170715 546.175415,89.137474 524.755798,89.878403 
	C506.631714,90.505348 488.490417,90.718491 470.354584,90.906334 
	C430.395996,91.320221 390.436066,91.874794 350.476715,91.869682 
	C300.354858,91.863281 250.232635,91.411415 200.111511,91.029160 
	C183.475479,90.902283 166.842392,90.394218 150.207870,90.064529 
	C132.740601,89.718330 115.272301,89.417000 97.806229,89.018433 
	C87.500816,88.783257 77.200745,88.299469 66.894936,88.099594 
	C44.931110,87.673607 22.965109,87.359787 1.000000,87.000000 
	C1.000000,77.979103 1.000000,68.958206 1.468657,59.468239 
	C19.911440,58.686058 37.884693,58.181011 55.859871,58.099358 
	C94.641075,57.923187 133.425476,57.688263 172.204376,57.999966 
	C206.153824,58.272854 240.100174,59.152176 274.042633,59.978531 
	C290.161926,60.370972 306.266998,61.317932 322.382111,61.916698 
	C341.827484,62.639202 361.273438,63.660873 380.725037,63.816299 
	C402.694611,63.991856 424.678284,63.615040 446.641968,62.990379 
	C470.903381,62.300365 495.150513,61.091267 519.401123,60.044411 
	C541.489319,59.090904 563.567749,57.879700 585.661804,57.105396 
	C603.125977,56.493355 620.607666,56.085636 638.080994,56.102875 
	C661.387756,56.125866 684.695251,56.580769 708.000122,56.984364 
	C719.975525,57.191757 731.948425,57.626637 743.917664,58.083275 
	C750.226135,58.323944 756.526917,58.794476 762.826660,59.226948 
	C780.885681,60.466660 798.942383,61.739925 817.000000,63.000000 
z"/>
<path fill="#F7E9F3" opacity="1.000000" stroke="none" 
	d="
M1.000000,87.468781 
	C22.965109,87.359787 44.931110,87.673607 66.894936,88.099594 
	C77.200745,88.299469 87.500816,88.783257 97.806229,89.018433 
	C115.272301,89.417000 132.740601,89.718330 150.207870,90.064529 
	C166.842392,90.394218 183.475479,90.902283 200.111511,91.029160 
	C250.232635,91.411415 300.354858,91.863281 350.476715,91.869682 
	C390.436066,91.874794 430.395996,91.320221 470.354584,90.906334 
	C488.490417,90.718491 506.631714,90.505348 524.755798,89.878403 
	C546.175415,89.137474 567.593323,88.170715 588.985840,86.871979 
	C611.852539,85.483742 634.686523,83.562515 657.539124,81.935303 
	C672.278076,80.885826 687.012024,79.425873 701.770752,79.059959 
	C739.861572,78.115562 777.964844,77.676537 816.531616,77.017822 
	C817.000000,87.661301 817.000000,98.322594 817.000000,108.963524 
	C545.000000,108.963524 273.000000,108.963524 1.000000,108.963524 
	C1.000000,101.930550 1.000000,94.934059 1.000000,87.468781 
z"/>
<path fill="#C57EBB" opacity="1.000000" stroke="none" 
	d="
M817.000000,62.531467 
	C798.942383,61.739925 780.885681,60.466660 762.826660,59.226948 
	C756.526917,58.794476 750.226135,58.323944 743.917664,58.083275 
	C731.948425,57.626637 719.975525,57.191757 708.000122,56.984364 
	C684.695251,56.580769 661.387756,56.125866 638.080994,56.102875 
	C620.607666,56.085636 603.125977,56.493355 585.661804,57.105396 
	C563.567749,57.879700 541.489319,59.090904 519.401123,60.044411 
	C495.150513,61.091267 470.903381,62.300365 446.641968,62.990379 
	C424.678284,63.615040 402.694611,63.991856 380.725037,63.816299 
	C361.273438,63.660873 341.827484,62.639202 322.382111,61.916698 
	C306.266998,61.317932 290.161926,60.370972 274.042633,59.978531 
	C240.100174,59.152176 206.153824,58.272854 172.204376,57.999966 
	C133.425476,57.688263 94.641075,57.923187 55.859871,58.099358 
	C37.884693,58.181011 19.911440,58.686058 1.468657,58.999580 
	C1.000000,48.312439 1.000000,37.624878 1.000000,26.468658 
	C33.139851,26.522701 65.350334,25.897587 97.400993,27.869820 
	C134.274582,30.138828 171.014938,34.623623 207.798096,38.296947 
	C242.315643,41.744022 276.894073,43.287746 311.583527,42.547302 
	C364.875122,41.409801 418.177277,39.287712 471.460724,39.653316 
	C528.415283,40.044113 585.352539,42.860329 642.298767,44.571915 
	C691.608032,46.053967 740.907288,45.936073 790.187378,43.440826 
	C798.837952,43.002811 807.489258,42.577045 816.570068,42.072815 
	C817.000000,48.687645 817.000000,55.375290 817.000000,62.531467 
z"/>
</svg>