<svg version="1.1" id="Layer_1" xmlns="http://www.w3.org/2000/svg" xmlns:xlink="http://www.w3.org/1999/xlink" x="0px" y="0px"
	 width="100%" viewBox="0 0 1074 113" enable-background="new 0 0 1074 113" xml:space="preserve">
<path fill="#020202" opacity="1.000000" stroke="none" 
	d="
M1.000000,32.000000 
	C1.000000,21.670578 1.000000,11.341157 1.000000,1.040757 
	C359.000000,1.040757 717.000000,1.040757 1075.000000,1.040757 
	C1075.000000,13.076982 1075.000000,25.072449 1074.541504,37.474678 
	C1064.603516,38.444241 1055.128540,39.103352 1045.643677,39.553001 
	C1006.869263,41.391186 968.087952,44.716095 929.316345,44.618221 
	C862.681335,44.450016 796.034180,42.681671 729.424866,40.557304 
	C666.920471,38.563854 604.475586,38.708645 542.016052,41.510777 
	C487.121948,43.973507 432.434662,41.297150 377.901245,34.738762 
	C340.513550,30.242382 303.050232,25.923010 265.355225,26.191248 
	C210.541550,26.581301 155.731812,27.827215 100.926704,29.001635 
	C67.611679,29.715546 34.308498,30.981842 1.000000,32.000000 
z"/>
<path fill="#F7E9F3" opacity="1.000000" stroke="none" 
	d="
M1075.000000,79.000000 
	C1075.000000,90.020897 1075.000000,101.041786 1074.546387,112.531281 
	C716.395203,112.999916 358.697601,112.999962 1.000000,113.000000 
	C1.000000,103.312439 1.000000,93.624878 1.468551,83.457260 
	C31.394917,83.302353 60.853146,83.594482 90.310410,83.963463 
	C112.605110,84.242722 134.900345,84.531342 157.192139,84.975830 
	C186.119537,85.552628 215.044083,86.276009 243.969254,86.961105 
	C256.600189,87.260262 269.229218,87.639374 281.859924,87.948898 
	C296.322266,88.303299 310.785736,88.611931 325.248322,88.956779 
	C338.711792,89.277802 352.173676,89.675499 365.638214,89.940193 
	C385.265533,90.326042 404.895294,90.939934 424.522705,90.894493 
	C470.976715,90.786942 517.430298,90.384560 563.883484,90.031593 
	C599.674133,89.759659 635.464661,89.434883 671.254028,89.028809 
	C689.883606,88.817436 708.514709,88.526299 727.137451,87.998894 
	C743.070984,87.547661 759.001709,86.858803 774.918518,85.996094 
	C789.488403,85.206367 804.041992,84.097366 818.595581,83.030602 
	C835.955688,81.758133 853.297974,80.225983 870.666626,79.091560 
	C888.880859,77.901909 907.110352,76.393013 925.345459,76.203911 
	C953.131592,75.915771 980.931519,76.471268 1008.719421,76.994171 
	C1030.817627,77.410019 1052.906860,78.313179 1075.000000,79.000000 
z"/>
<path fill="#E0B5D6" opacity="1.000000" stroke="none" 
	d="
M1075.000000,78.545891 
	C1052.906860,78.313179 1030.817627,77.410019 1008.719421,76.994171 
	C980.931519,76.471268 953.131592,75.915771 925.345459,76.203911 
	C907.110352,76.393013 888.880859,77.901909 870.666626,79.091560 
	C853.297974,80.225983 835.955688,81.758133 818.595581,83.030602 
	C804.041992,84.097366 789.488403,85.206367 774.918518,85.996094 
	C759.001709,86.858803 743.070984,87.547661 727.137451,87.998894 
	C708.514709,88.526299 689.883606,88.817436 671.254028,89.028809 
	C635.464661,89.434883 599.674133,89.759659 563.883484,90.031593 
	C517.430298,90.384560 470.976715,90.786942 424.522705,90.894493 
	C404.895294,90.939934 385.265533,90.326042 365.638214,89.940193 
	C352.173676,89.675499 338.711792,89.277802 325.248322,88.956779 
	C310.785736,88.611931 296.322266,88.303299 281.859924,87.948898 
	C269.229218,87.639374 256.600189,87.260262 243.969254,86.961105 
	C215.044083,86.276009 186.119537,85.552628 157.192139,84.975830 
	C134.900345,84.531342 112.605110,84.242722 90.310410,83.963463 
	C60.853146,83.594482 31.394917,83.302353 1.468551,82.988602 
	C1.000000,73.312439 1.000000,63.624878 1.467942,53.445152 
	C9.401029,53.288857 16.866531,53.617027 24.331244,53.962265 
	C38.429195,54.614285 52.523655,55.352306 66.625130,55.915115 
	C85.386307,56.663895 104.152939,57.850426 122.917000,57.846138 
	C181.539764,57.832752 240.162277,57.156921 298.785187,57.110130 
	C340.577698,57.076771 382.372864,57.477161 424.162628,58.010902 
	C445.764648,58.286804 467.360504,59.191353 488.953796,59.962223 
	C514.520020,60.874924 540.079468,62.737999 565.643738,62.771793 
	C605.235291,62.824135 644.833618,61.892963 684.418762,60.946770 
	C704.660461,60.462936 724.875977,58.956215 745.110229,58.067455 
	C763.036011,57.280090 780.971130,56.155628 798.902283,56.151501 
	C841.527222,56.141693 884.152710,56.666710 926.776978,57.079788 
	C933.911438,57.148933 941.050171,57.609745 948.170776,58.117092 
	C965.370667,59.342606 982.562073,60.688400 999.754761,62.014236 
	C1008.849060,62.715557 1017.948608,63.373383 1027.028442,64.233360 
	C1043.025879,65.748520 1059.010254,67.403534 1075.000000,69.000000 
	C1075.000000,72.030594 1075.000000,75.061188 1075.000000,78.545891 
z"/>
<path fill="#C57EBB" opacity="1.000000" stroke="none" 
	d="
M1075.000000,68.531342 
	C1059.010254,67.403534 1043.025879,65.748520 1027.028442,64.233360 
	C1017.948608,63.373383 1008.849060,62.715557 999.754761,62.014236 
	C982.562073,60.688400 965.370667,59.342606 948.170776,58.117092 
	C941.050171,57.609745 933.911438,57.148933 926.776978,57.079788 
	C884.152710,56.666710 841.527222,56.141693 798.902283,56.151501 
	C780.971130,56.155628 763.036011,57.280090 745.110229,58.067455 
	C724.875977,58.956215 704.660461,60.462936 684.418762,60.946770 
	C644.833618,61.892963 605.235291,62.824135 565.643738,62.771793 
	C540.079468,62.737999 514.520020,60.874924 488.953796,59.962223 
	C467.360504,59.191353 445.764648,58.286804 424.162628,58.010902 
	C382.372864,57.477161 340.577698,57.076771 298.785187,57.110130 
	C240.162277,57.156921 181.539764,57.832752 122.917000,57.846138 
	C104.152939,57.850426 85.386307,56.663895 66.625130,55.915115 
	C52.523655,55.352306 38.429195,54.614285 24.331244,53.962265 
	C16.866531,53.617027 9.401029,53.288857 1.467942,52.976494 
	C1.000000,46.312355 1.000000,39.624710 1.000000,32.468533 
	C34.308498,30.981842 67.611679,29.715546 100.926704,29.001635 
	C155.731812,27.827215 210.541550,26.581301 265.355225,26.191248 
	C303.050232,25.923010 340.513550,30.242382 377.901245,34.738762 
	C432.434662,41.297150 487.121948,43.973507 542.016052,41.510777 
	C604.475586,38.708645 666.920471,38.563854 729.424866,40.557304 
	C796.034180,42.681671 862.681335,44.450016 929.316345,44.618221 
	C968.087952,44.716095 1006.869263,41.391186 1045.643677,39.553001 
	C1055.128540,39.103352 1064.603516,38.444241 1074.541504,37.940720 
	C1075.000000,48.020893 1075.000000,58.041790 1075.000000,68.531342 
z"/>
<path fill="#FFFEFE" opacity="1.000000" stroke="none" 
	d="
M1.000000,113.500000 
	C358.697601,112.999962 716.395203,112.999916 1074.546387,112.999939 
	C1074.833374,113.333344 1074.684082,113.943825 1074.497192,113.955559 
	C1073.169067,114.039001 1071.833374,114.000000 1070.500000,114.000000 
	C714.000000,114.000000 357.500000,114.000000 1.000000,113.500000 
z"/>
</svg>