<svg version="1.1" id="Layer_1" xmlns="http://www.w3.org/2000/svg" xmlns:xlink="http://www.w3.org/1999/xlink" x="0px" y="0px"
	 width="100%" viewBox="0 0 960 200" enable-background="new 0 0 960 200" xml:space="preserve">
<path fill="#020102" opacity="1.000000" stroke="none" 
	d="
M1.000000,32.000000 
	C1.000000,21.670891 1.000000,11.341783 1.000000,1.047323 
	C321.000000,1.047323 641.000000,1.047323 961.000000,1.047323 
	C961.000000,24.418442 961.000000,47.742237 960.605347,71.478401 
	C952.694153,70.421227 945.177612,68.951622 937.661133,67.482162 
	C898.551514,59.836346 859.230713,53.244991 819.313843,52.892300 
	C791.368713,52.645382 763.348083,53.765949 735.461243,55.711334 
	C689.167480,58.940788 643.008728,59.773540 596.706421,55.524658 
	C566.047241,52.711246 535.179871,49.816578 504.476929,50.444550 
	C468.583832,51.178677 432.747101,55.465710 396.925079,58.651798 
	C361.763092,61.779182 326.705688,61.999474 291.803894,56.206486 
	C260.599213,51.027145 229.497391,45.223721 198.278442,40.135921 
	C143.506104,31.209599 88.361443,28.332474 32.927048,30.832497 
	C22.288784,31.312269 11.642554,31.615387 1.000000,32.000000 
z"/>
<path fill="#D49AC9" opacity="1.000000" stroke="none" 
	d="
M1.000000,108.000000 
	C1.000000,98.645775 1.000000,89.291542 1.457153,79.469849 
	C16.432135,77.680817 30.948847,76.346870 45.468067,75.040779 
	C64.114822,73.363380 82.739738,71.335434 101.417686,70.140266 
	C123.611259,68.720146 145.843369,67.548134 168.073792,67.183662 
	C182.650681,66.944679 197.261887,68.190895 211.843552,69.021034 
	C226.907135,69.878609 241.972382,70.819534 257.002869,72.117996 
	C277.300415,73.871483 297.535828,76.425140 317.853210,77.843323 
	C336.067963,79.114738 354.353577,79.678810 372.615326,79.879051 
	C389.235535,80.061279 405.866760,79.020988 422.491333,79.073769 
	C457.776947,79.185791 493.062103,79.601700 528.346008,80.016090 
	C539.642456,80.148758 550.935425,80.638634 562.228088,81.020973 
	C571.024475,81.318802 579.815369,81.814850 588.613403,82.025467 
	C605.667664,82.433731 622.736328,83.240517 639.778625,82.890244 
	C659.843750,82.477844 679.896729,81.169289 699.936401,79.945023 
	C711.841675,79.217720 723.705078,77.828819 735.598206,76.872620 
	C752.446777,75.518021 769.287048,73.805504 786.165771,73.163879 
	C798.761780,72.685059 811.439697,73.256866 824.032715,74.091537 
	C838.407043,75.044273 852.921692,75.778252 867.030396,78.437614 
	C894.240967,83.566574 921.203430,90.007812 948.283325,95.837486 
	C952.482788,96.741531 956.759155,97.288116 961.000000,98.000000 
	C961.000000,101.361290 961.000000,104.722572 960.533264,108.537323 
	C946.142273,109.678642 932.216492,110.336021 918.294678,111.070656 
	C913.328613,111.332703 908.370361,111.756752 903.412048,112.150429 
	C887.390137,113.422516 871.372253,114.746315 855.347961,115.987816 
	C845.429443,116.756271 835.489929,117.275085 825.581604,118.151321 
	C812.549133,119.303841 799.548462,120.818604 786.514648,121.954185 
	C772.974182,123.133896 759.415588,124.120552 745.855774,125.059677 
	C726.008850,126.434250 706.169006,128.420822 686.298706,128.835602 
	C652.396729,129.543320 618.481140,129.278458 584.650146,126.089714 
	C572.435669,124.938431 560.140259,124.658562 547.885742,123.915375 
	C526.865540,122.640594 505.855469,120.361168 484.828644,120.207100 
	C440.551208,119.882683 396.265503,120.938950 351.983490,120.915886 
	C297.704895,120.887611 243.426163,120.386772 189.148392,119.973366 
	C175.186813,119.867020 161.226913,119.377731 147.269501,118.956169 
	C139.804092,118.730690 132.338516,118.384422 124.885422,117.901299 
	C105.695808,116.657349 86.510155,115.348213 67.328979,113.980194 
	C58.566704,113.355263 49.813942,112.582306 41.065319,111.783897 
	C27.706366,110.564743 14.354737,109.265343 1.000000,108.000000 
z"/>
<path fill="#EBCFE4" opacity="1.000000" stroke="none" 
	d="
M1.000000,171.000000 
	C1.000000,157.312439 1.000000,143.624878 1.467881,129.465546 
	C19.159201,129.984726 36.395622,130.792725 53.602734,132.013748 
	C74.267731,133.480118 94.903137,135.358505 115.559975,136.946304 
	C134.074692,138.369461 152.588623,139.859543 171.126007,140.914276 
	C188.202271,141.885880 205.305054,142.466858 222.403854,142.946274 
	C240.694000,143.459061 258.992920,143.664032 277.288422,143.981140 
	C297.416229,144.329987 317.548492,144.502838 337.671295,145.035812 
	C353.770966,145.462234 369.856720,146.391312 385.953583,146.956314 
	C407.376801,147.708282 428.801605,148.705994 450.231750,148.887177 
	C470.688599,149.060150 491.179169,148.842712 511.606476,147.824722 
	C529.129517,146.951492 546.584473,144.708664 564.068787,143.063202 
	C578.918640,141.665665 593.761047,140.184479 608.618408,138.871857 
	C624.134338,137.501053 639.662354,135.247711 655.188232,135.221390 
	C687.610840,135.166412 720.038391,136.212296 752.458069,137.035919 
	C765.893433,137.377243 779.309937,138.404602 792.741943,138.947952 
	C811.664612,139.713425 830.590088,140.744766 849.520691,140.902512 
	C886.678162,141.212189 923.839966,140.997635 961.000000,141.000000 
	C961.000000,157.687561 961.000000,174.375122 960.531372,191.531250 
	C922.945068,191.664001 885.827026,191.371582 848.710327,190.952087 
	C842.078857,190.877151 835.423889,190.556183 828.830750,189.863373 
	C811.704041,188.063721 794.597839,186.059631 777.498169,184.014420 
	C758.091431,181.693268 738.725098,179.014679 719.296387,176.903793 
	C698.880676,174.685684 678.447144,172.100662 657.956299,171.258423 
	C638.379272,170.453766 618.717041,171.621765 599.095398,172.061203 
	C593.463623,172.187363 587.833374,172.691864 582.218567,173.200974 
	C568.858337,174.412415 555.503784,175.690460 542.154541,177.017670 
	C531.604614,178.066559 521.064392,179.214096 510.522797,180.344437 
	C499.326416,181.544968 488.148102,182.938995 476.935150,183.953064 
	C463.564758,185.162247 450.173523,186.171051 436.777740,187.062576 
	C415.766144,188.460968 394.758057,190.144913 373.719879,190.832596 
	C358.953522,191.315262 344.134430,190.488403 329.348328,189.974106 
	C316.250183,189.518509 303.146515,188.936783 290.078674,187.962708 
	C270.914459,186.534210 251.777237,184.737595 232.633667,183.039612 
	C214.316437,181.414948 196.020203,179.531433 177.688370,178.099258 
	C157.688126,176.536774 137.666901,175.195862 117.637299,174.070374 
	C101.228035,173.148285 84.797134,172.547089 68.368301,172.054718 
	C51.414814,171.546600 34.452694,171.315826 17.493382,171.019058 
	C11.997159,170.922882 6.497880,171.001389 1.000000,171.000000 
z"/>
<path fill="#C47EBA" opacity="1.000000" stroke="none" 
	d="
M961.000000,97.531357 
	C956.759155,97.288116 952.482788,96.741531 948.283325,95.837486 
	C921.203430,90.007812 894.240967,83.566574 867.030396,78.437614 
	C852.921692,75.778252 838.407043,75.044273 824.032715,74.091537 
	C811.439697,73.256866 798.761780,72.685059 786.165771,73.163879 
	C769.287048,73.805504 752.446777,75.518021 735.598206,76.872620 
	C723.705078,77.828819 711.841675,79.217720 699.936401,79.945023 
	C679.896729,81.169289 659.843750,82.477844 639.778625,82.890244 
	C622.736328,83.240517 605.667664,82.433731 588.613403,82.025467 
	C579.815369,81.814850 571.024475,81.318802 562.228088,81.020973 
	C550.935425,80.638634 539.642456,80.148758 528.346008,80.016090 
	C493.062103,79.601700 457.776947,79.185791 422.491333,79.073769 
	C405.866760,79.020988 389.235535,80.061279 372.615326,79.879051 
	C354.353577,79.678810 336.067963,79.114738 317.853210,77.843323 
	C297.535828,76.425140 277.300415,73.871483 257.002869,72.117996 
	C241.972382,70.819534 226.907135,69.878609 211.843552,69.021034 
	C197.261887,68.190895 182.650681,66.944679 168.073792,67.183662 
	C145.843369,67.548134 123.611259,68.720146 101.417686,70.140266 
	C82.739738,71.335434 64.114822,73.363380 45.468067,75.040779 
	C30.948847,76.346870 16.432135,77.680817 1.457153,79.001190 
	C1.000000,63.645771 1.000000,48.291546 1.000000,32.468658 
	C11.642554,31.615387 22.288784,31.312269 32.927048,30.832497 
	C88.361443,28.332474 143.506104,31.209599 198.278442,40.135921 
	C229.497391,45.223721 260.599213,51.027145 291.803894,56.206486 
	C326.705688,61.999474 361.763092,61.779182 396.925079,58.651798 
	C432.747101,55.465710 468.583832,51.178677 504.476929,50.444550 
	C535.179871,49.816578 566.047241,52.711246 596.706421,55.524658 
	C643.008728,59.773540 689.167480,58.940788 735.461243,55.711334 
	C763.348083,53.765949 791.368713,52.645382 819.313843,52.892300 
	C859.230713,53.244991 898.551514,59.836346 937.661133,67.482162 
	C945.177612,68.951622 952.694153,70.421227 960.605347,71.945389 
	C961.000000,80.354233 961.000000,88.708466 961.000000,97.531357 
z"/>
<path fill="#E0B5D6" opacity="1.000000" stroke="none" 
	d="
M961.000000,140.531342 
	C923.839966,140.997635 886.678162,141.212189 849.520691,140.902512 
	C830.590088,140.744766 811.664612,139.713425 792.741943,138.947952 
	C779.309937,138.404602 765.893433,137.377243 752.458069,137.035919 
	C720.038391,136.212296 687.610840,135.166412 655.188232,135.221390 
	C639.662354,135.247711 624.134338,137.501053 608.618408,138.871857 
	C593.761047,140.184479 578.918640,141.665665 564.068787,143.063202 
	C546.584473,144.708664 529.129517,146.951492 511.606476,147.824722 
	C491.179169,148.842712 470.688599,149.060150 450.231750,148.887177 
	C428.801605,148.705994 407.376801,147.708282 385.953583,146.956314 
	C369.856720,146.391312 353.770966,145.462234 337.671295,145.035812 
	C317.548492,144.502838 297.416229,144.329987 277.288422,143.981140 
	C258.992920,143.664032 240.694000,143.459061 222.403854,142.946274 
	C205.305054,142.466858 188.202271,141.885880 171.126007,140.914276 
	C152.588623,139.859543 134.074692,138.369461 115.559975,136.946304 
	C94.903137,135.358505 74.267731,133.480118 53.602734,132.013748 
	C36.395622,130.792725 19.159201,129.984726 1.467881,128.996887 
	C1.000000,122.312355 1.000000,115.624710 1.000000,108.468536 
	C14.354737,109.265343 27.706366,110.564743 41.065319,111.783897 
	C49.813942,112.582306 58.566704,113.355263 67.328979,113.980194 
	C86.510155,115.348213 105.695808,116.657349 124.885422,117.901299 
	C132.338516,118.384422 139.804092,118.730690 147.269501,118.956169 
	C161.226913,119.377731 175.186813,119.867020 189.148392,119.973366 
	C243.426163,120.386772 297.704895,120.887611 351.983490,120.915886 
	C396.265503,120.938950 440.551208,119.882683 484.828644,120.207100 
	C505.855469,120.361168 526.865540,122.640594 547.885742,123.915375 
	C560.140259,124.658562 572.435669,124.938431 584.650146,126.089714 
	C618.481140,129.278458 652.396729,129.543320 686.298706,128.835602 
	C706.169006,128.420822 726.008850,126.434250 745.855774,125.059677 
	C759.415588,124.120552 772.974182,123.133896 786.514648,121.954185 
	C799.548462,120.818604 812.549133,119.303841 825.581604,118.151321 
	C835.489929,117.275085 845.429443,116.756271 855.347961,115.987816 
	C871.372253,114.746315 887.390137,113.422516 903.412048,112.150429 
	C908.370361,111.756752 913.328613,111.332703 918.294678,111.070656 
	C932.216492,110.336021 946.142273,109.678642 960.533264,108.995392 
	C961.000000,119.354225 961.000000,129.708450 961.000000,140.531342 
z"/>
<path fill="#F7E9F3" opacity="1.000000" stroke="none" 
	d="
M1.000000,171.468658 
	C6.497880,171.001389 11.997159,170.922882 17.493382,171.019058 
	C34.452694,171.315826 51.414814,171.546600 68.368301,172.054718 
	C84.797134,172.547089 101.228035,173.148285 117.637299,174.070374 
	C137.666901,175.195862 157.688126,176.536774 177.688370,178.099258 
	C196.020203,179.531433 214.316437,181.414948 232.633667,183.039612 
	C251.777237,184.737595 270.914459,186.534210 290.078674,187.962708 
	C303.146515,188.936783 316.250183,189.518509 329.348328,189.974106 
	C344.134430,190.488403 358.953522,191.315262 373.719879,190.832596 
	C394.758057,190.144913 415.766144,188.460968 436.777740,187.062576 
	C450.173523,186.171051 463.564758,185.162247 476.935150,183.953064 
	C488.148102,182.938995 499.326416,181.544968 510.522797,180.344437 
	C521.064392,179.214096 531.604614,178.066559 542.154541,177.017670 
	C555.503784,175.690460 568.858337,174.412415 582.218567,173.200974 
	C587.833374,172.691864 593.463623,172.187363 599.095398,172.061203 
	C618.717041,171.621765 638.379272,170.453766 657.956299,171.258423 
	C678.447144,172.100662 698.880676,174.685684 719.296387,176.903793 
	C738.725098,179.014679 758.091431,181.693268 777.498169,184.014420 
	C794.597839,186.059631 811.704041,188.063721 828.830750,189.863373 
	C835.423889,190.556183 842.078857,190.877151 848.710327,190.952087 
	C885.827026,191.371582 922.945068,191.664001 960.531372,191.999908 
	C961.000000,194.998688 961.000000,197.997375 961.000000,200.962341 
	C641.000000,200.962341 321.000000,200.962341 1.000000,200.962341 
	C1.000000,191.262222 1.000000,181.599762 1.000000,171.468658 
z"/>
</svg>